<svg width="25" height="20" viewBox="0 0 25 20" fill="none" xmlns="http://www.w3.org/2000/svg">
<path d="M22.9688 19.565H1.96875C0.853125 19.565 0 18.72 0 17.615V5.915C0 4.81 0.853125 3.965 1.96875 3.965H6.3C6.5625 3.965 6.825 3.77 6.89062 3.51L7.6125 1.365C7.875 0.585 8.6625 0 9.45 0H16.7344C17.5875 0 18.3094 0.52 18.5719 1.365L19.2938 3.51C19.3594 3.77 19.6219 3.965 19.8844 3.965H22.9688C24.0844 3.965 24.9375 4.81 24.9375 5.915V17.615C24.9375 18.72 24.0844 19.565 22.9688 19.565ZM1.96875 5.265C1.575 5.265 1.3125 5.525 1.3125 5.915V17.615C1.3125 18.005 1.575 18.265 1.96875 18.265H22.9688C23.3625 18.265 23.625 18.005 23.625 17.615V5.915C23.625 5.525 23.3625 5.265 22.9688 5.265H19.95C19.0969 5.265 18.375 4.745 18.1125 3.9L17.3906 1.755C17.325 1.56 17.0625 1.365 16.8 1.365H9.45C9.1875 1.365 8.925 1.56 8.85938 1.82L8.1375 3.965C7.875 4.745 7.15313 5.265 6.3 5.265H1.96875Z" fill="#804F1E"/>
<path d="M13.125 15.9651C9.84375 15.9651 7.21875 13.3651 7.21875 10.1151C7.21875 6.86514 9.84375 4.26514 13.125 4.26514C16.4062 4.26514 19.0312 6.86514 19.0312 10.1151C19.0312 13.3651 16.4062 15.9651 13.125 15.9651ZM13.125 5.56514C10.5656 5.56514 8.53125 7.58014 8.53125 10.1151C8.53125 12.6501 10.5656 14.6651 13.125 14.6651C15.6844 14.6651 17.7188 12.6501 17.7188 10.1151C17.7188 7.58014 15.6844 5.56514 13.125 5.56514Z" fill="#804F1E"/>
<path d="M15.75 11.1152C15.75 12.5452 14.5688 13.7152 13.125 13.7152L15.75 11.1152Z" fill="#804F1E"/>
<path d="M13.125 14.3648C12.7312 14.3648 12.4688 14.1048 12.4688 13.7148C12.4688 13.3248 12.7312 13.0648 13.125 13.0648C14.2406 13.0648 15.0938 12.2198 15.0938 11.1148C15.0938 10.7248 15.3563 10.4648 15.75 10.4648C16.1437 10.4648 16.4062 10.7248 16.4062 11.1148C16.4062 12.9348 14.9625 14.3648 13.125 14.3648Z" fill="#804F1E"/>
</svg>
