<svg width="20" height="22" viewBox="0 0 20 22" fill="none" xmlns="http://www.w3.org/2000/svg">
<path d="M19 6.16L11.5 0.502857C11.0673 0.176447 10.5409 0 10 0C9.45907 0 8.93274 0.176447 8.5 0.502857L1 6.16C0.68951 6.3942 0.437501 6.69788 0.263932 7.04701C0.0903625 7.39613 0 7.7811 0 8.17143V19.4857C0 20.1525 0.263392 20.7921 0.732233 21.2636C1.20107 21.7351 1.83696 22 2.5 22H17.5C18.163 22 18.7989 21.7351 19.2678 21.2636C19.7366 20.7921 20 20.1525 20 19.4857V8.17143C20 7.7811 19.9096 7.39613 19.7361 7.04701C19.5625 6.69788 19.3105 6.3942 19 6.16ZM9.37492 14.4571H5V9.42857H9.37492V14.4571ZM5 20.7429V15.7143H9.37492V20.7429H5ZM10.6251 20.7429V15.7143H15V20.7429H10.6251ZM18.75 19.4857C18.7496 19.819 18.6178 20.1385 18.3835 20.3742C18.1491 20.6099 17.8314 20.7425 17.5 20.7429H16.25V15.7143C16.25 15.3809 16.1183 15.0611 15.8839 14.8254C15.6495 14.5896 15.3315 14.4571 15 14.4571H10.6249V9.42857C10.6249 9.09516 10.4932 8.7754 10.2588 8.53964C10.0244 8.30388 9.70645 8.17143 9.37492 8.17143H5C4.66848 8.17143 4.35054 8.30388 4.11612 8.53964C3.8817 8.7754 3.75 9.09516 3.75 9.42857V20.7429H2.5C2.1686 20.7425 1.85088 20.6099 1.61654 20.3742C1.3822 20.1385 1.25038 19.819 1.25 19.4857V8.17143C1.25047 7.97635 1.29585 7.78402 1.3826 7.60954C1.46935 7.43505 1.5951 7.28314 1.75 7.16571L9.25 1.50857C9.46637 1.34537 9.72954 1.25714 10 1.25714C10.2705 1.25714 10.5336 1.34537 10.75 1.50857L18.25 7.16571C18.4049 7.28314 18.5307 7.43505 18.6174 7.60954C18.7041 7.78402 18.7495 7.97635 18.75 8.17143V19.4857Z" fill="#804F1E"/>
</svg>
