<svg width="26" height="24" viewBox="0 0 26 24" fill="none" xmlns="http://www.w3.org/2000/svg">
<path fill-rule="evenodd" clip-rule="evenodd" d="M22.8875 4.72866H8.43598C8.23292 4.72866 8.03818 4.80932 7.8946 4.9529C7.75102 5.09648 7.67035 5.29122 7.67035 5.49428C7.67035 5.69734 7.75102 5.89208 7.8946 6.03566C8.03818 6.17924 8.23292 6.25991 8.43598 6.25991H22.8875C23.0293 6.25978 23.1689 6.29595 23.2928 6.36498C23.4167 6.43402 23.5209 6.53361 23.5954 6.6543C23.67 6.77498 23.7124 6.91273 23.7187 7.05444C23.7249 7.19616 23.6948 7.33712 23.6312 7.46391C22.7562 9.22003 21.5067 13.1374 20.8829 14.3843C20.8138 14.5224 20.7076 14.6385 20.5762 14.7196C20.4449 14.8008 20.2935 14.8437 20.1391 14.8437H9.49998C9.33315 14.8439 9.17011 14.7939 9.03202 14.7003C8.89394 14.6067 8.78718 14.4737 8.7256 14.3187C8.7256 14.3099 6.33248 3.57366 6.33248 3.57366C6.13769 2.6937 5.64852 1.90654 4.9458 1.34223C4.24307 0.777918 3.36886 0.470239 2.4676 0.470031H1.51648C1.41448 0.465285 1.31263 0.481892 1.21742 0.518789C1.12222 0.555686 1.03577 0.612059 0.963614 0.684298C0.891457 0.756537 0.835183 0.84305 0.798395 0.938295C0.761606 1.03354 0.745115 1.13542 0.749977 1.23741C0.75044 1.44032 0.831252 1.63479 0.974734 1.77827C1.11822 1.92176 1.31269 2.00257 1.5156 2.00303H2.4676C3.01971 2.00288 3.55539 2.19089 3.98629 2.53606C4.4172 2.88124 4.71761 3.36295 4.83798 3.90178L7.2381 14.6844C7.24423 14.7089 7.25123 14.7352 7.2591 14.7597C7.41591 15.23 7.7167 15.639 8.11887 15.9289C8.52104 16.2188 9.00422 16.3748 9.49998 16.3749H20.1391C20.5779 16.3749 21.008 16.2526 21.3812 16.0219C21.7545 15.7912 22.0561 15.461 22.2522 15.0685C22.8752 13.8217 24.1221 9.90603 25.0006 8.14816C25.1808 7.78795 25.2659 7.38765 25.2479 6.98528C25.2298 6.58292 25.1092 6.19185 24.8975 5.84922C24.6857 5.50659 24.3899 5.22378 24.0381 5.02766C23.6863 4.83154 23.2902 4.72861 22.8875 4.72866Z" fill="#804F1E"/>
<path fill-rule="evenodd" clip-rule="evenodd" d="M10.3321 17.2725C9.71338 17.2725 9.10856 17.4559 8.59412 17.7997C8.07968 18.1435 7.67875 18.6321 7.44201 19.2037C7.20528 19.7753 7.14338 20.4044 7.26415 21.0112C7.38492 21.618 7.68293 22.1754 8.1205 22.6128C8.55806 23.0503 9.11552 23.3481 9.72238 23.4687C10.3292 23.5893 10.9582 23.5272 11.5298 23.2903C12.1014 23.0535 12.5899 22.6524 12.9335 22.1378C13.2771 21.6233 13.4604 21.0184 13.4602 20.3997C13.4595 19.5704 13.1297 18.7752 12.5432 18.1889C11.9567 17.6025 11.1614 17.2729 10.3321 17.2725ZM10.3321 21.9975C10.0163 21.9975 9.70761 21.9038 9.44502 21.7284C9.18243 21.553 8.97776 21.3036 8.85687 21.0119C8.73598 20.7201 8.70431 20.3991 8.76585 20.0894C8.8274 19.7796 8.9794 19.4951 9.20264 19.2717C9.42588 19.0484 9.71033 18.8962 10.02 18.8345C10.3297 18.7728 10.6508 18.8043 10.9426 18.925C11.2344 19.0457 11.4839 19.2503 11.6594 19.5128C11.835 19.7753 11.9288 20.0839 11.929 20.3997C11.9288 20.8232 11.7605 21.2294 11.4611 21.5289C11.1617 21.8285 10.7556 21.997 10.3321 21.9975Z" fill="#804F1E"/>
<path fill-rule="evenodd" clip-rule="evenodd" d="M19.0506 17.2725C18.4319 17.2725 17.8271 17.4559 17.3126 17.7997C16.7982 18.1435 16.3973 18.6321 16.1605 19.2037C15.9238 19.7753 15.8619 20.4044 15.9827 21.0112C16.1034 21.618 16.4014 22.1754 16.839 22.6128C17.2766 23.0503 17.834 23.3481 18.4409 23.4687C19.0477 23.5893 19.6767 23.5272 20.2483 23.2903C20.8199 23.0535 21.3084 22.6524 21.652 22.1378C21.9956 21.6233 22.1789 21.0184 22.1787 20.3997C22.1783 19.5703 21.8485 18.775 21.262 18.1886C20.6754 17.6022 19.88 17.2727 19.0506 17.2725ZM19.0506 21.9975C18.7348 21.9975 18.4261 21.9038 18.1635 21.7284C17.9009 21.553 17.6963 21.3036 17.5754 21.0119C17.4545 20.7201 17.4228 20.3991 17.4844 20.0894C17.5459 19.7796 17.6979 19.4951 17.9211 19.2717C18.1444 19.0484 18.4288 18.8962 18.7385 18.8345C19.0482 18.7728 19.3693 18.8043 19.6611 18.925C19.9529 19.0457 20.2024 19.2503 20.3779 19.5128C20.5535 19.7753 20.6473 20.0839 20.6475 20.3997C20.6473 20.8232 20.479 21.2294 20.1796 21.5289C19.8802 21.8285 19.4741 21.997 19.0506 21.9975Z" fill="#804F1E"/>
</svg>
