<svg width="60" height="60" viewBox="0 0 60 60" fill="none" xmlns="http://www.w3.org/2000/svg">
<circle cx="30" cy="30" r="30" fill="#FF5E00"/>
<path d="M44.7591 28.6421V29.9999C44.7572 33.1826 43.7267 36.2794 41.821 38.8285C39.9154 41.3776 37.2368 43.2424 34.1847 44.1448C31.1327 45.0472 27.8707 44.9389 24.8852 43.8359C21.8998 42.7329 19.3508 40.6944 17.6186 38.0245C15.8863 35.3545 15.0636 32.1961 15.273 29.0204C15.4824 25.8446 16.7127 22.8216 18.7806 20.4022C20.8484 17.9828 23.643 16.2967 26.7474 15.5953C29.8518 14.8939 33.0998 15.2148 36.0069 16.5101" stroke="white" stroke-width="3" stroke-linecap="round" stroke-linejoin="round"/>
<path d="M44.759 18.1929L30 32.9667L25.5723 28.539" stroke="white" stroke-width="3" stroke-linecap="round" stroke-linejoin="round"/>
</svg>
