<svg width="324" height="254" viewBox="0 0 324 254" fill="none" xmlns="http://www.w3.org/2000/svg">
<rect y="19" width="324" height="235" rx="30" fill="white"/>
<circle cx="162" cy="30" r="30" fill="#FF5E00"/>
<path d="M176.759 28.6421V29.9999C176.757 33.1826 175.727 36.2794 173.821 38.8285C171.915 41.3776 169.237 43.2424 166.185 44.1448C163.133 45.0472 159.871 44.9389 156.885 43.8359C153.9 42.7329 151.351 40.6944 149.619 38.0245C147.886 35.3545 147.064 32.1961 147.273 29.0204C147.482 25.8446 148.713 22.8216 150.781 20.4022C152.848 17.9828 155.643 16.2967 158.747 15.5953C161.852 14.8939 165.1 15.2148 168.007 16.5101" stroke="white" stroke-width="3" stroke-linecap="round" stroke-linejoin="round"/>
<path d="M176.759 18.1929L162 32.9667L157.572 28.539" stroke="white" stroke-width="3" stroke-linecap="round" stroke-linejoin="round"/>
</svg>
