<svg width="118" height="184" viewBox="0 0 118 184" fill="none" xmlns="http://www.w3.org/2000/svg">
<path d="M24.4699 134.908C26.2401 135.942 27.5461 136.967 28.3879 137.983C29.2296 138.976 29.6531 140.163 29.6586 141.544C29.6635 142.789 29.3286 143.968 28.6537 145.08C28.0015 146.192 27.0088 147.091 25.6756 147.775C24.3651 148.46 22.7702 148.806 20.8909 148.813C19.9626 148.817 19.0793 148.741 18.2409 148.586C17.4252 148.453 16.3829 148.242 15.1137 147.953C14.8191 147.886 14.3206 147.786 13.6182 147.653C12.9383 147.497 12.3151 147.375 11.7487 147.287L11.1299 136.829L11.3675 136.794C12.6227 139.279 14.1363 141.277 15.9084 142.787C17.6805 144.297 19.3829 145.366 21.0156 145.994C22.6709 146.598 24.0419 146.899 25.1287 146.894C25.8306 146.892 26.3283 146.765 26.6216 146.515C26.9376 146.265 27.0948 145.947 27.0933 145.562C27.091 144.973 26.7378 144.42 26.0339 143.902C25.3526 143.384 24.2063 142.664 22.595 141.742L21.0632 140.865L17.114 138.469C16.0019 137.817 15.0825 137.198 14.3556 136.612C13.6286 136.004 13.0371 135.282 12.5809 134.446C12.1248 133.61 11.8944 132.626 11.89 131.493C11.8807 129.161 12.6551 127.46 14.2132 126.39C15.7939 125.319 17.8862 124.779 20.49 124.769C21.5995 124.764 22.6302 124.896 23.5822 125.164C24.5342 125.409 25.3506 125.746 26.0316 126.173L28.1998 124.806L28.3696 124.805L28.4086 134.655L28.2049 134.655C26.2928 132.104 24.247 130.075 22.0674 128.566C19.8877 127.058 17.9375 126.307 16.2167 126.314C15.6733 126.316 15.255 126.442 14.9616 126.692C14.6682 126.92 14.5222 127.238 14.5239 127.645C14.5256 128.098 14.7085 128.539 15.0725 128.968C15.459 129.374 15.9928 129.79 16.6737 130.218C17.3547 130.645 18.5916 131.388 20.3846 132.445L24.4699 134.908Z" fill="#6D3805"/>
<path d="M59.0966 146.454L60.6642 147.772L60.665 147.976L51.529 148.012L51.5282 147.809L53.1192 146.478L53.0769 135.813C53.0711 134.342 52.4456 133.608 51.2003 133.613C50.4304 133.616 49.7527 134.015 49.1672 134.81C49.1904 134.946 49.2025 135.15 49.2036 135.421L49.1795 146.493L50.781 147.812L50.7818 148.015L41.6458 148.052L41.645 147.848L43.2021 146.517L43.1598 135.853C43.154 134.381 42.5397 133.648 41.3171 133.652C40.5246 133.656 39.8582 134.043 39.3179 134.815L39.3643 146.532L40.9318 147.851L40.9326 148.054L31.7966 148.091L31.7958 147.887L33.3868 146.556L33.3365 133.854L30.7943 135.121L30.6578 134.951L31.3669 133.93C32.1099 132.862 32.7067 132.056 33.1574 131.511C33.608 130.943 34.093 130.477 34.6123 130.113C35.1316 129.749 35.6743 129.565 36.2404 129.563C37.0555 129.56 37.6906 129.84 38.1456 130.405C38.6234 130.969 38.865 131.941 38.8704 133.323C38.8722 133.775 38.8623 134.138 38.8408 134.409L38.8747 134.409C41.2392 131.139 42.9422 129.503 43.9837 129.498C45.5007 129.492 46.6684 129.895 47.4867 130.707C48.3276 131.496 48.864 132.57 49.0958 133.927C51.3029 130.952 52.8933 129.463 53.8669 129.459C55.6556 129.452 56.971 130.002 57.8132 131.108C58.6552 132.191 59.0797 133.616 59.0867 135.382L59.0966 146.454Z" fill="#6D3805"/>
<path d="M79.5846 142.739L79.7211 142.908L78.9781 143.964C77.92 145.508 77.0527 146.621 76.3762 147.303C75.6996 147.985 74.9538 148.327 74.1387 148.33C73.3236 148.334 72.6771 148.053 72.1994 147.489C71.7443 146.925 71.5141 145.952 71.5086 144.571C71.5069 144.141 71.5169 143.812 71.5387 143.586L71.3688 143.587C70.7181 145.061 69.9415 146.23 69.0393 147.094C68.137 147.958 66.9953 148.393 65.6141 148.398C64.4368 148.403 63.4846 148.09 62.7575 147.459C62.053 146.805 61.6985 145.912 61.694 144.78C61.6884 143.353 62.2158 142.162 63.2762 141.207C64.3366 140.252 65.7708 139.352 67.5788 138.507L71.3082 136.862C71.3242 135.186 71.0925 133.852 70.6131 132.857C70.1336 131.84 69.4976 131.333 68.7051 131.336C68.207 131.338 67.8115 131.521 67.5186 131.884C67.2257 132.248 67.0807 132.803 67.0837 133.55C67.0873 134.456 67.2954 135.553 67.7081 136.842L61.4319 138.633L61.3294 138.464C62.5192 135.878 63.8926 133.914 65.4496 132.572C67.0065 131.207 68.3842 130.33 69.5827 129.94C70.8038 129.551 71.7087 129.355 72.2974 129.352C73.6785 129.347 74.7436 129.569 75.4926 130.019C76.2415 130.446 76.7534 131.067 77.0283 131.881C77.3031 132.672 77.4429 133.668 77.4477 134.868C77.451 135.706 77.4206 136.589 77.3563 137.517L77.0745 143.53L77.0765 144.039L79.5846 142.739ZM68.9262 144.275C69.3111 144.274 69.7181 144.125 70.1471 143.829C70.5761 143.51 70.9478 143.045 71.2624 142.432L71.3112 137.609C69.9112 138.566 68.907 139.419 68.2986 140.168C67.7129 140.918 67.4215 141.666 67.4245 142.413C67.427 143.047 67.5873 143.522 67.9056 143.838C68.2237 144.131 68.5639 144.277 68.9262 144.275Z" fill="#6D3805"/>
<path d="M95.8089 131.263C95.3828 132.306 94.8209 133.35 94.1231 134.394C93.4253 135.416 92.6688 135.928 91.8537 135.932C91.5593 135.933 91.276 135.855 91.0037 135.697C90.7539 135.517 90.4699 135.269 90.1516 134.953C89.8561 134.66 89.5948 134.435 89.3678 134.277C89.1408 134.12 88.9027 134.041 88.6536 134.042C88.5404 134.043 88.3936 134.123 88.2131 134.282C88.0552 134.441 87.9314 134.634 87.8418 134.861L87.8874 146.374L89.4548 147.658L89.4556 147.862L80.3196 147.898L80.3188 147.695L81.9098 146.364L81.8595 133.662L79.3172 134.928L79.1807 134.759L79.8899 133.737C80.6329 132.67 81.2297 131.864 81.6804 131.319C82.131 130.751 82.6159 130.285 83.1353 129.921C83.6546 129.556 84.1973 129.373 84.7633 129.371C85.5784 129.368 86.2135 129.648 86.6686 130.212C87.1462 130.754 87.3878 131.715 87.3932 133.096C87.395 133.527 87.3849 133.855 87.3632 134.081L87.6349 134.08L88.5131 132.854C89.3462 131.673 89.988 130.788 90.4385 130.197C90.9116 129.607 91.2614 129.311 91.4878 129.31C91.6463 129.31 91.8505 129.411 92.1004 129.613C92.3501 129.794 92.6 129.996 92.85 130.222C93.2818 130.628 93.6566 130.943 93.9745 131.168C94.2924 131.393 94.5985 131.505 94.8928 131.504C95.074 131.504 95.2097 131.48 95.3001 131.435C95.4131 131.389 95.526 131.298 95.6387 131.162L95.8089 131.263Z" fill="#6D3805"/>
<path d="M107.022 143.581C104.612 146.738 102.773 148.319 101.505 148.324C100.124 148.329 99.092 147.903 98.4094 147.046C97.7493 146.188 97.4043 144.831 97.3743 142.974L97.2255 131.121L95.2511 129.975L95.2503 129.771L97.8654 129.76L102.835 124.001L103.073 124L103.096 129.74L106.798 129.725L106.803 131.185C105.445 131.191 104.21 131.094 103.1 130.894L103.074 141.491C103.078 142.351 103.25 143.007 103.592 143.459C103.933 143.91 104.409 144.135 105.021 144.133C105.564 144.13 106.186 143.89 106.886 143.412L107.022 143.581Z" fill="#6D3805"/>
<path d="M13.3475 161.157C15.1135 162.198 16.4155 163.228 17.2532 164.247C18.091 165.243 18.5098 166.432 18.5098 167.813C18.5098 169.059 18.1702 170.236 17.491 171.345C16.8343 172.455 15.8381 173.349 14.5022 174.029C13.189 174.708 11.5927 175.047 9.71342 175.047C8.7851 175.047 7.90206 174.968 7.06431 174.81C6.2492 174.674 5.20766 174.459 3.93971 174.164C3.64536 174.096 3.14724 173.995 2.44534 173.859C1.76608 173.7 1.14342 173.576 0.577371 173.485L0 163.025L0.237741 162.991C1.48305 165.481 2.98875 167.485 4.75482 169.002C6.5209 170.519 8.21905 171.595 9.84928 172.228C11.5021 172.84 12.872 173.146 13.9588 173.146C14.6607 173.146 15.1588 173.021 15.4532 172.772C15.7702 172.523 15.9287 172.206 15.9287 171.821C15.9287 171.232 15.5777 170.678 14.8758 170.157C14.1965 169.636 13.0531 168.911 11.4455 167.983L9.9172 167.1L5.97749 164.689C4.86803 164.032 3.95103 163.409 3.22649 162.821C2.50194 162.209 1.91325 161.485 1.46041 160.647C1.00757 159.809 0.78115 158.824 0.78115 157.692C0.78115 155.36 1.5623 153.662 3.1246 152.598C4.70954 151.534 6.80392 151.002 9.40776 151.002C10.5172 151.002 11.5474 151.137 12.4984 151.409C13.4494 151.658 14.2645 151.998 14.9437 152.428L17.1174 151.07H17.2872V160.919H17.0834C15.1815 158.36 13.1437 156.322 10.9701 154.805C8.79642 153.288 6.84921 152.53 5.12842 152.53C4.58501 152.53 4.16613 152.654 3.87178 152.904C3.57744 153.13 3.43026 153.447 3.43026 153.855C3.43026 154.307 3.6114 154.749 3.97367 155.179C4.35859 155.587 4.89067 156.005 5.56994 156.436C6.2492 156.866 7.48319 157.613 9.2719 158.677L13.3475 161.157Z" fill="#6D3805"/>
<path d="M31.3882 170.157C28.9655 173.304 27.1202 174.878 25.8522 174.878C24.4711 174.878 23.4409 174.447 22.7616 173.587C22.105 172.727 21.7653 171.368 21.7427 169.511L21.6408 157.658L19.671 156.504V156.3H22.2861L27.2787 150.56H27.5164V156.3H31.2184V157.76C29.8599 157.76 28.6259 157.658 27.5164 157.455L27.4485 168.051C27.4485 168.911 27.6183 169.568 27.9579 170.021C28.2976 170.474 28.773 170.7 29.3844 170.7C29.9278 170.7 30.5504 170.462 31.2523 169.987L31.3882 170.157Z" fill="#6D3805"/>
<path d="M40.6484 174.878C38.905 174.878 37.3653 174.47 36.0295 173.655C34.6936 172.817 33.6634 171.696 32.9388 170.293C32.2143 168.889 31.852 167.36 31.852 165.708C31.852 163.217 32.4294 161.236 33.5841 159.764C34.7615 158.292 36.0408 157.273 37.4219 156.707C38.8031 156.119 39.856 155.824 40.5805 155.824C42.3239 155.824 43.8636 156.243 45.1995 157.081C46.558 157.896 47.5995 159.017 48.3241 160.443C49.0486 161.847 49.4109 163.398 49.4109 165.096C49.4109 167.564 48.8222 169.523 47.6448 170.972C46.4901 172.421 45.2108 173.44 43.807 174.029C42.4258 174.595 41.373 174.878 40.6484 174.878ZM43.6711 173.213C44.2372 172.987 44.5202 172.308 44.5202 171.176C44.5202 169.772 44.0334 167.643 43.0598 164.791C41.3164 159.855 39.6635 157.387 38.1012 157.387C37.1729 157.387 36.7087 158.123 36.7087 159.594C36.7087 161.066 37.1729 163.16 38.1012 165.877C38.9616 168.345 39.8107 170.202 40.6484 171.447C41.5088 172.67 42.3466 173.281 43.1617 173.281C43.2749 173.281 43.4447 173.259 43.6711 173.213Z" fill="#6D3805"/>
<path d="M66.359 157.794C65.9288 158.836 65.3627 159.877 64.6608 160.919C63.9589 161.938 63.2004 162.447 62.3853 162.447C62.0909 162.447 61.8079 162.368 61.5362 162.209C61.2872 162.028 61.0041 161.779 60.6871 161.462C60.3928 161.168 60.1324 160.941 59.906 160.783C59.6796 160.624 59.4418 160.545 59.1928 160.545C59.0796 160.545 58.9324 160.624 58.7513 160.783C58.5928 160.941 58.4682 161.134 58.3777 161.36V172.874L59.94 174.164V174.368H50.8039V174.164L52.4002 172.84V160.138L49.8529 161.394L49.7171 161.224L50.4303 160.206C51.1775 159.141 51.7775 158.338 52.2304 157.794C52.6832 157.228 53.17 156.764 53.6908 156.402C54.2115 156.039 54.7549 155.858 55.321 155.858C56.1361 155.858 56.7701 156.141 57.2229 156.707C57.6984 157.251 57.9361 158.213 57.9361 159.594C57.9361 160.024 57.9248 160.353 57.9022 160.579H58.1739L59.0569 159.357C59.8947 158.179 60.54 157.296 60.9928 156.707C61.4683 156.119 61.8192 155.824 62.0457 155.824C62.2042 155.824 62.4079 155.926 62.657 156.13C62.9061 156.311 63.1551 156.515 63.4042 156.741C63.8344 157.149 64.208 157.466 64.525 157.692C64.842 157.919 65.1476 158.032 65.442 158.032C65.6231 158.032 65.759 158.009 65.8495 157.964C65.9627 157.919 66.0759 157.828 66.1892 157.692L66.359 157.794Z" fill="#6D3805"/>
<path d="M82.6262 169.206L82.762 169.376L82.0149 170.428C80.9507 171.968 80.079 173.078 79.3997 173.757C78.7204 174.436 77.9733 174.776 77.1581 174.776C76.343 174.776 75.6977 174.493 75.2223 173.927C74.7694 173.361 74.543 172.387 74.543 171.006C74.543 170.576 74.5543 170.247 74.577 170.021H74.4071C73.7505 171.493 72.9694 172.659 72.0637 173.519C71.158 174.379 70.0146 174.81 68.6334 174.81C67.456 174.81 66.5051 174.493 65.7805 173.859C65.0786 173.202 64.7277 172.308 64.7277 171.176C64.7277 169.749 65.2598 168.56 66.3239 167.61C67.3881 166.659 68.8259 165.764 70.6372 164.926L74.3732 163.296C74.3958 161.621 74.1694 160.285 73.6939 159.289C73.2184 158.27 72.5845 157.76 71.792 157.76C71.2939 157.76 70.8976 157.941 70.6033 158.304C70.3089 158.666 70.1618 159.221 70.1618 159.968C70.1618 160.874 70.3655 161.972 70.7731 163.262L64.4899 165.028L64.388 164.859C65.5881 162.277 66.9692 160.319 68.5315 158.983C70.0938 157.624 71.475 156.753 72.675 156.368C73.8977 155.983 74.8034 155.79 75.3921 155.79C76.7732 155.79 77.8374 156.017 78.5846 156.47C79.3318 156.9 79.8412 157.523 80.1129 158.338C80.3846 159.13 80.5205 160.126 80.5205 161.326C80.5205 162.164 80.4865 163.047 80.4186 163.975L80.1129 169.987V170.496L82.6262 169.206ZM71.9618 170.7C72.3467 170.7 72.7543 170.553 73.1845 170.259C73.6147 169.942 73.9883 169.477 74.3052 168.866L74.3732 164.043C72.9694 164.994 71.9618 165.843 71.3505 166.591C70.7618 167.338 70.4674 168.085 70.4674 168.832C70.4674 169.466 70.6259 169.942 70.9429 170.259C71.2599 170.553 71.5995 170.7 71.9618 170.7Z" fill="#6D3805"/>
<path d="M102.49 157.76C101.244 157.738 100.089 157.658 99.0253 157.523C97.9611 157.364 96.8403 157.138 95.6629 156.843L95.5611 157.047C96.8969 157.523 97.8932 158.224 98.5498 159.153C99.2064 160.081 99.5347 161.123 99.5347 162.277C99.5347 163.885 99.0026 165.176 97.9385 166.149C96.8969 167.123 95.7535 167.825 94.5082 168.255C93.2855 168.662 92.4025 168.866 91.8591 168.866C90.0704 168.866 88.5194 168.425 87.2062 167.542C86.9571 167.836 86.8326 168.244 86.8326 168.764C86.8326 170.281 88.0326 171.04 90.4326 171.04L95.4592 171.074C97.2479 171.074 98.6064 171.481 99.5347 172.296C100.486 173.112 100.961 174.153 100.961 175.421C100.961 176.666 100.52 177.889 99.6366 179.089C98.7762 180.289 97.5762 181.274 96.0365 182.044C94.5195 182.814 92.844 183.199 91.01 183.199C88.9722 183.199 87.1156 182.87 85.4401 182.214C83.7872 181.58 82.5872 180.595 81.84 179.259C81.7042 178.987 83.074 177.595 85.9495 175.081C84.9759 174.719 84.2061 174.176 83.64 173.451C83.0966 172.727 82.8249 171.912 82.8249 171.006C82.8249 170.847 83.0061 170.598 83.3683 170.259C83.7533 169.896 84.3986 169.319 85.3042 168.527L86.7646 167.236C86.0174 166.647 85.4288 165.945 84.9986 165.13C84.591 164.315 84.3872 163.432 84.3872 162.481C84.3872 160.806 84.9306 159.47 86.0174 158.473C87.1043 157.477 88.259 156.787 89.4817 156.402C90.7043 156.017 91.5308 155.824 91.961 155.824C92.3685 155.824 93.0478 155.892 93.9988 156.028C95.2214 156.209 96.2516 156.3 97.0894 156.3H102.49V157.76ZM93.7271 167.847C94.4516 167.802 94.8139 167.304 94.8139 166.353C94.8139 165.493 94.5309 164.247 93.9648 162.617C92.6968 158.836 91.3949 156.945 90.0591 156.945C89.2892 156.945 88.9043 157.443 88.9043 158.44C88.9043 159.277 89.1873 160.534 89.7534 162.209C91.0666 165.968 92.3912 167.847 93.7271 167.847ZM88.8703 175.625C87.9647 175.625 87.1382 175.5 86.391 175.251C86.1873 175.523 86.0854 175.817 86.0854 176.134C86.0854 176.927 86.6061 177.572 87.6477 178.07C88.6892 178.568 89.9232 178.931 91.3496 179.157C92.7761 179.383 94.1007 179.497 95.3233 179.497C96.6139 179.497 97.6668 179.327 98.4819 178.987C99.297 178.648 99.7046 178.206 99.7046 177.663C99.7046 176.508 98.1989 175.885 95.1875 175.795L88.8703 175.625Z" fill="#6D3805"/>
<path d="M118 169.545C114.762 173.1 112.6 174.878 111.513 174.878C109.702 174.878 108.06 174.504 106.588 173.757C105.117 172.987 103.962 171.912 103.124 170.53C102.286 169.127 101.868 167.485 101.868 165.606C101.868 163.183 102.456 161.236 103.634 159.764C104.811 158.292 106.124 157.262 107.573 156.673C109.045 156.085 110.245 155.79 111.173 155.79C113.211 155.79 114.785 156.356 115.894 157.489C117.004 158.598 117.626 160.058 117.762 161.87C117.762 162.164 117.377 162.56 116.608 163.058C115.838 163.534 114.966 163.964 113.992 164.349C113.019 164.711 112.294 164.892 111.819 164.892H107.471C108.173 166.477 109.136 167.779 110.358 168.798C111.581 169.817 113.007 170.327 114.638 170.327C115.136 170.327 115.623 170.259 116.098 170.123C116.596 169.964 117.174 169.715 117.83 169.376L118 169.545ZM108.287 157.353C107.766 157.353 107.324 157.613 106.962 158.134C106.622 158.655 106.453 159.402 106.453 160.375C106.453 161.598 106.713 162.9 107.234 164.281H111.683C111.66 162.991 111.49 161.824 111.173 160.783C110.879 159.719 110.472 158.881 109.951 158.27C109.453 157.658 108.898 157.353 108.287 157.353Z" fill="#6D3805"/>
<rect width="23.4957" height="23.4957" rx="6" transform="matrix(-1 0 0 1 83.8491 67.8396)" fill="#FF5E00"/>
<rect width="23.4957" height="24.5173" rx="6" transform="matrix(1 -8.74228e-08 -8.74228e-08 -1 35.8361 78.0554)" fill="#FF5E00"/>
<rect width="23.4957" height="23.4957" rx="6" transform="matrix(-1 0 0 1 83.8491 92.3569)" fill="#FBA53E"/>
<rect width="23.4957" height="23.4957" rx="6" transform="matrix(1 -8.74228e-08 -8.74228e-08 -1 35.8361 52.5164)" fill="#FBA53E"/>
<rect width="23.5689" height="23.5689" rx="6" transform="matrix(0.707107 0.707107 0.707107 -0.707107 28.4311 103.527)" fill="#9F2733"/>
<rect width="23.5689" height="23.5689" rx="6" transform="matrix(0.707107 -0.707107 -0.707107 -0.707107 74.3342 57.8486)" fill="#9F2733"/>
<path d="M16.7021 19.3008C8.2619 13.9672 8 0 8 0C8 0 13.2822 2.09321 16.7021 3.39069C21.9715 5.38979 25.9884 5.47172 30.3228 8.34631C37.3279 12.9921 38.6466 24.5173 38.6466 24.5173C38.6466 24.5173 23.3844 23.5236 16.7021 19.3008Z" fill="#C9D52B"/>
<path d="M42.6229 12.8054C40.3805 17.3045 42.1986 25.6707 42.1986 25.6707C42.1986 25.6707 49.5709 23.1934 53.05 19.8822C59.0047 14.2147 59.9668 0.000773894 59.9668 0.000773894C59.9668 0.000773894 55.6749 2.74025 53.0174 4.63001C48.8087 7.62289 44.9266 8.18323 42.6229 12.8054Z" fill="#C9D52B"/>
</svg>
