<svg width="82" height="118" viewBox="0 0 82 118" fill="none" xmlns="http://www.w3.org/2000/svg">
<rect width="23" height="23" rx="6" transform="matrix(-1 0 0 1 74.2488 66.4084)" fill="#FF5E00"/>
<rect width="23" height="24" rx="6" transform="matrix(1 -8.74228e-08 -8.74228e-08 -1 27.2488 76.4084)" fill="#FF5E00"/>
<rect width="23" height="23" rx="6" transform="matrix(-1 0 0 1 74.2488 90.4084)" fill="#FBA53E"/>
<rect width="23" height="23" rx="6" transform="matrix(1 -8.74228e-08 -8.74228e-08 -1 27.2488 51.4084)" fill="#FBA53E"/>
<rect width="23.0716" height="23.0716" rx="6" transform="matrix(0.707107 0.707107 0.707107 -0.707107 20 101.343)" fill="#9F2733"/>
<rect width="23.0716" height="23.0716" rx="6" transform="matrix(0.707107 -0.707107 -0.707107 -0.707107 64.9347 56.6282)" fill="#9F2733"/>
<path d="M8.51852 18.8936C0.256372 13.6725 0 0 0 0C0 0 5.17071 2.04904 8.51852 3.31915C13.6767 5.27607 17.6089 5.35628 21.8519 8.17021C28.7091 12.718 30 24 30 24C30 24 15.0598 23.0273 8.51852 18.8936Z" fill="#C9D52B"/>
<path d="M33.8925 12.535C31.6974 16.9391 33.4771 25.1288 33.4771 25.1288C33.4771 25.1288 40.6939 22.7038 44.0995 19.4625C49.9286 13.9146 50.8704 0.000521598 50.8704 0.000521598C50.8704 0.000521598 46.6691 2.6822 44.0677 4.53208C39.9477 7.46182 36.1476 8.01034 33.8925 12.535Z" fill="#C9D52B"/>
</svg>
