<svg width="382" height="350" viewBox="0 0 382 350" fill="none" xmlns="http://www.w3.org/2000/svg">
<rect x="62.5" y="51.5" width="295" height="266" rx="7.5" fill="white" fill-opacity="0.9" stroke="#C1CEBD"/>
<path d="M106.096 95.108C107.552 95.9667 108.625 96.816 109.316 97.656C110.007 98.4773 110.352 99.4573 110.352 100.596C110.352 101.623 110.072 102.593 109.512 103.508C108.971 104.423 108.149 105.16 107.048 105.72C105.965 106.28 104.649 106.56 103.1 106.56C102.335 106.56 101.607 106.495 100.916 106.364C100.244 106.252 99.3853 106.075 98.34 105.832C98.0973 105.776 97.6867 105.692 97.108 105.58C96.548 105.449 96.0347 105.347 95.568 105.272L95.092 96.648L95.288 96.62C96.3147 98.6733 97.556 100.325 99.012 101.576C100.468 102.827 101.868 103.713 103.212 104.236C104.575 104.74 105.704 104.992 106.6 104.992C107.179 104.992 107.589 104.889 107.832 104.684C108.093 104.479 108.224 104.217 108.224 103.9C108.224 103.415 107.935 102.957 107.356 102.528C106.796 102.099 105.853 101.501 104.528 100.736L103.268 100.008L100.02 98.02C99.1053 97.4787 98.3493 96.9653 97.752 96.48C97.1547 95.976 96.6693 95.3787 96.296 94.688C95.9227 93.9973 95.736 93.1853 95.736 92.252C95.736 90.3293 96.38 88.9293 97.668 88.052C98.9747 87.1747 100.701 86.736 102.848 86.736C103.763 86.736 104.612 86.848 105.396 87.072C106.18 87.2773 106.852 87.5573 107.412 87.912L109.204 86.792H109.344V94.912H109.176C107.608 92.8027 105.928 91.1227 104.136 89.872C102.344 88.6213 100.739 87.996 99.32 87.996C98.872 87.996 98.5267 88.0987 98.284 88.304C98.0413 88.4907 97.92 88.752 97.92 89.088C97.92 89.4613 98.0693 89.8253 98.368 90.18C98.6853 90.516 99.124 90.8613 99.684 91.216C100.244 91.5707 101.261 92.1867 102.736 93.064L106.096 95.108ZM134.605 104.74L135.893 105.832V106H128.361V105.832L129.677 104.74V95.948C129.677 94.7347 129.164 94.128 128.137 94.128C127.503 94.128 126.943 94.4547 126.457 95.108C126.476 95.22 126.485 95.388 126.485 95.612L126.429 104.74L127.745 105.832V106H120.213V105.832L121.501 104.74V95.948C121.501 94.7347 120.997 94.128 119.989 94.128C119.336 94.128 118.785 94.4453 118.337 95.08V104.74L119.625 105.832V106H112.093V105.832L113.409 104.74V94.268L111.309 95.304L111.197 95.164L111.785 94.324C112.401 93.4467 112.896 92.784 113.269 92.336C113.643 91.8693 114.044 91.4867 114.473 91.188C114.903 90.8893 115.351 90.74 115.817 90.74C116.489 90.74 117.012 90.9733 117.385 91.44C117.777 91.9067 117.973 92.7093 117.973 93.848C117.973 94.2213 117.964 94.52 117.945 94.744H117.973C119.933 92.056 121.343 90.712 122.201 90.712C123.452 90.712 124.413 91.048 125.085 91.72C125.776 92.3733 126.215 93.26 126.401 94.38C128.231 91.9347 129.547 90.712 130.349 90.712C131.824 90.712 132.907 91.1693 133.597 92.084C134.288 92.98 134.633 94.156 134.633 95.612L134.605 104.74ZM151.508 101.744L151.62 101.884L151.004 102.752C150.127 104.021 149.408 104.936 148.848 105.496C148.288 106.056 147.672 106.336 147 106.336C146.328 106.336 145.796 106.103 145.404 105.636C145.031 105.169 144.844 104.367 144.844 103.228C144.844 102.873 144.853 102.603 144.872 102.416H144.732C144.191 103.629 143.547 104.591 142.8 105.3C142.053 106.009 141.111 106.364 139.972 106.364C139.001 106.364 138.217 106.103 137.62 105.58C137.041 105.039 136.752 104.301 136.752 103.368C136.752 102.192 137.191 101.212 138.068 100.428C138.945 99.644 140.131 98.9067 141.624 98.216L144.704 96.872C144.723 95.4907 144.536 94.3893 144.144 93.568C143.752 92.728 143.229 92.308 142.576 92.308C142.165 92.308 141.839 92.4573 141.596 92.756C141.353 93.0547 141.232 93.512 141.232 94.128C141.232 94.8747 141.4 95.78 141.736 96.844L136.556 98.3L136.472 98.16C137.461 96.032 138.6 94.4173 139.888 93.316C141.176 92.196 142.315 91.4773 143.304 91.16C144.312 90.8427 145.059 90.684 145.544 90.684C146.683 90.684 147.56 90.8707 148.176 91.244C148.792 91.5987 149.212 92.112 149.436 92.784C149.66 93.4373 149.772 94.2587 149.772 95.248C149.772 95.9387 149.744 96.6667 149.688 97.432L149.436 102.388V102.808L151.508 101.744ZM142.716 102.976C143.033 102.976 143.369 102.855 143.724 102.612C144.079 102.351 144.387 101.968 144.648 101.464L144.704 97.488C143.547 98.272 142.716 98.972 142.212 99.588C141.727 100.204 141.484 100.82 141.484 101.436C141.484 101.959 141.615 102.351 141.876 102.612C142.137 102.855 142.417 102.976 142.716 102.976ZM164.921 92.336C164.566 93.1947 164.1 94.0533 163.521 94.912C162.942 95.752 162.317 96.172 161.645 96.172C161.402 96.172 161.169 96.1067 160.945 95.976C160.74 95.8267 160.506 95.6213 160.245 95.36C160.002 95.1173 159.788 94.9307 159.601 94.8C159.414 94.6693 159.218 94.604 159.013 94.604C158.92 94.604 158.798 94.6693 158.649 94.8C158.518 94.9307 158.416 95.0893 158.341 95.276V104.768L159.629 105.832V106H152.097V105.832L153.413 104.74V94.268L151.313 95.304L151.201 95.164L151.789 94.324C152.405 93.4467 152.9 92.784 153.273 92.336C153.646 91.8693 154.048 91.4867 154.477 91.188C154.906 90.8893 155.354 90.74 155.821 90.74C156.493 90.74 157.016 90.9733 157.389 91.44C157.781 91.888 157.977 92.6813 157.977 93.82C157.977 94.1747 157.968 94.4453 157.949 94.632H158.173L158.901 93.624C159.592 92.6533 160.124 91.9253 160.497 91.44C160.889 90.9547 161.178 90.712 161.365 90.712C161.496 90.712 161.664 90.796 161.869 90.964C162.074 91.1133 162.28 91.2813 162.485 91.468C162.84 91.804 163.148 92.0653 163.409 92.252C163.67 92.4387 163.922 92.532 164.165 92.532C164.314 92.532 164.426 92.5133 164.501 92.476C164.594 92.4387 164.688 92.364 164.781 92.252L164.921 92.336ZM174.126 102.528C172.128 105.123 170.607 106.42 169.562 106.42C168.423 106.42 167.574 106.065 167.014 105.356C166.472 104.647 166.192 103.527 166.174 101.996L166.09 92.224L164.466 91.272V91.104H166.622L170.738 86.372H170.934V91.104H173.986V92.308C172.866 92.308 171.848 92.224 170.934 92.056L170.878 100.792C170.878 101.501 171.018 102.043 171.298 102.416C171.578 102.789 171.97 102.976 172.474 102.976C172.922 102.976 173.435 102.78 174.014 102.388L174.126 102.528ZM191.655 95.108C193.111 95.9667 194.184 96.816 194.875 97.656C195.565 98.4773 195.911 99.4573 195.911 100.596C195.911 101.623 195.631 102.593 195.071 103.508C194.529 104.423 193.708 105.16 192.607 105.72C191.524 106.28 190.208 106.56 188.659 106.56C187.893 106.56 187.165 106.495 186.475 106.364C185.803 106.252 184.944 106.075 183.899 105.832C183.656 105.776 183.245 105.692 182.667 105.58C182.107 105.449 181.593 105.347 181.127 105.272L180.651 96.648L180.847 96.62C181.873 98.6733 183.115 100.325 184.571 101.576C186.027 102.827 187.427 103.713 188.771 104.236C190.133 104.74 191.263 104.992 192.159 104.992C192.737 104.992 193.148 104.889 193.391 104.684C193.652 104.479 193.783 104.217 193.783 103.9C193.783 103.415 193.493 102.957 192.915 102.528C192.355 102.099 191.412 101.501 190.087 100.736L188.827 100.008L185.579 98.02C184.664 97.4787 183.908 96.9653 183.311 96.48C182.713 95.976 182.228 95.3787 181.855 94.688C181.481 93.9973 181.295 93.1853 181.295 92.252C181.295 90.3293 181.939 88.9293 183.227 88.052C184.533 87.1747 186.26 86.736 188.407 86.736C189.321 86.736 190.171 86.848 190.955 87.072C191.739 87.2773 192.411 87.5573 192.971 87.912L194.763 86.792H194.903V94.912H194.735C193.167 92.8027 191.487 91.1227 189.695 89.872C187.903 88.6213 186.297 87.996 184.879 87.996C184.431 87.996 184.085 88.0987 183.843 88.304C183.6 88.4907 183.479 88.752 183.479 89.088C183.479 89.4613 183.628 89.8253 183.927 90.18C184.244 90.516 184.683 90.8613 185.243 91.216C185.803 91.5707 186.82 92.1867 188.295 93.064L191.655 95.108ZM206.528 102.528C204.531 105.123 203.009 106.42 201.964 106.42C200.825 106.42 199.976 106.065 199.416 105.356C198.875 104.647 198.595 103.527 198.576 101.996L198.492 92.224L196.868 91.272V91.104H199.024L203.14 86.372H203.336V91.104H206.388V92.308C205.268 92.308 204.251 92.224 203.336 92.056L203.28 100.792C203.28 101.501 203.42 102.043 203.7 102.416C203.98 102.789 204.372 102.976 204.876 102.976C205.324 102.976 205.837 102.78 206.416 102.388L206.528 102.528ZM214.162 106.42C212.725 106.42 211.456 106.084 210.354 105.412C209.253 104.721 208.404 103.797 207.806 102.64C207.209 101.483 206.91 100.223 206.91 98.86C206.91 96.8067 207.386 95.1733 208.338 93.96C209.309 92.7467 210.364 91.9067 211.502 91.44C212.641 90.9547 213.509 90.712 214.106 90.712C215.544 90.712 216.813 91.0573 217.914 91.748C219.034 92.42 219.893 93.344 220.49 94.52C221.088 95.6773 221.386 96.956 221.386 98.356C221.386 100.391 220.901 102.005 219.93 103.2C218.978 104.395 217.924 105.235 216.766 105.72C215.628 106.187 214.76 106.42 214.162 106.42ZM216.654 105.048C217.121 104.861 217.354 104.301 217.354 103.368C217.354 102.211 216.953 100.456 216.15 98.104C214.713 94.0347 213.35 92 212.062 92C211.297 92 210.914 92.6067 210.914 93.82C210.914 95.0333 211.297 96.76 212.062 99C212.772 101.035 213.472 102.565 214.162 103.592C214.872 104.6 215.562 105.104 216.234 105.104C216.328 105.104 216.468 105.085 216.654 105.048ZM235.359 92.336C235.004 93.1947 234.537 94.0533 233.959 94.912C233.38 95.752 232.755 96.172 232.083 96.172C231.84 96.172 231.607 96.1067 231.383 95.976C231.177 95.8267 230.944 95.6213 230.683 95.36C230.44 95.1173 230.225 94.9307 230.039 94.8C229.852 94.6693 229.656 94.604 229.451 94.604C229.357 94.604 229.236 94.6693 229.087 94.8C228.956 94.9307 228.853 95.0893 228.779 95.276V104.768L230.067 105.832V106H222.535V105.832L223.851 104.74V94.268L221.751 95.304L221.639 95.164L222.227 94.324C222.843 93.4467 223.337 92.784 223.711 92.336C224.084 91.8693 224.485 91.4867 224.915 91.188C225.344 90.8893 225.792 90.74 226.259 90.74C226.931 90.74 227.453 90.9733 227.827 91.44C228.219 91.888 228.415 92.6813 228.415 93.82C228.415 94.1747 228.405 94.4453 228.387 94.632H228.611L229.339 93.624C230.029 92.6533 230.561 91.9253 230.935 91.44C231.327 90.9547 231.616 90.712 231.803 90.712C231.933 90.712 232.101 90.796 232.307 90.964C232.512 91.1133 232.717 91.2813 232.923 91.468C233.277 91.804 233.585 92.0653 233.847 92.252C234.108 92.4387 234.36 92.532 234.603 92.532C234.752 92.532 234.864 92.5133 234.939 92.476C235.032 92.4387 235.125 92.364 235.219 92.252L235.359 92.336ZM248.77 101.744L248.882 101.884L248.266 102.752C247.388 104.021 246.67 104.936 246.11 105.496C245.55 106.056 244.934 106.336 244.262 106.336C243.59 106.336 243.058 106.103 242.666 105.636C242.292 105.169 242.106 104.367 242.106 103.228C242.106 102.873 242.115 102.603 242.134 102.416H241.994C241.452 103.629 240.808 104.591 240.062 105.3C239.315 106.009 238.372 106.364 237.234 106.364C236.263 106.364 235.479 106.103 234.882 105.58C234.303 105.039 234.014 104.301 234.014 103.368C234.014 102.192 234.452 101.212 235.33 100.428C236.207 99.644 237.392 98.9067 238.886 98.216L241.966 96.872C241.984 95.4907 241.798 94.3893 241.406 93.568C241.014 92.728 240.491 92.308 239.838 92.308C239.427 92.308 239.1 92.4573 238.858 92.756C238.615 93.0547 238.494 93.512 238.494 94.128C238.494 94.8747 238.662 95.78 238.998 96.844L233.818 98.3L233.734 98.16C234.723 96.032 235.862 94.4173 237.15 93.316C238.438 92.196 239.576 91.4773 240.566 91.16C241.574 90.8427 242.32 90.684 242.806 90.684C243.944 90.684 244.822 90.8707 245.438 91.244C246.054 91.5987 246.474 92.112 246.698 92.784C246.922 93.4373 247.034 94.2587 247.034 95.248C247.034 95.9387 247.006 96.6667 246.95 97.432L246.698 102.388V102.808L248.77 101.744ZM239.978 102.976C240.295 102.976 240.631 102.855 240.986 102.612C241.34 102.351 241.648 101.968 241.91 101.464L241.966 97.488C240.808 98.272 239.978 98.972 239.474 99.588C238.988 100.204 238.746 100.82 238.746 101.436C238.746 101.959 238.876 102.351 239.138 102.612C239.399 102.855 239.679 102.976 239.978 102.976ZM265.146 92.308C264.119 92.2893 263.167 92.224 262.29 92.112C261.412 91.9813 260.488 91.7947 259.518 91.552L259.434 91.72C260.535 92.112 261.356 92.6907 261.898 93.456C262.439 94.2213 262.71 95.08 262.71 96.032C262.71 97.3573 262.271 98.4213 261.394 99.224C260.535 100.027 259.592 100.605 258.566 100.96C257.558 101.296 256.83 101.464 256.382 101.464C254.907 101.464 253.628 101.1 252.546 100.372C252.34 100.615 252.238 100.951 252.238 101.38C252.238 102.631 253.227 103.256 255.206 103.256L259.35 103.284C260.824 103.284 261.944 103.62 262.71 104.292C263.494 104.964 263.886 105.823 263.886 106.868C263.886 107.895 263.522 108.903 262.794 109.892C262.084 110.881 261.095 111.693 259.826 112.328C258.575 112.963 257.194 113.28 255.682 113.28C254.002 113.28 252.471 113.009 251.09 112.468C249.727 111.945 248.738 111.133 248.122 110.032C248.01 109.808 249.139 108.66 251.51 106.588C250.707 106.289 250.072 105.841 249.606 105.244C249.158 104.647 248.934 103.975 248.934 103.228C248.934 103.097 249.083 102.892 249.382 102.612C249.699 102.313 250.231 101.837 250.978 101.184L252.182 100.12C251.566 99.6347 251.08 99.056 250.726 98.384C250.39 97.712 250.222 96.984 250.222 96.2C250.222 94.8187 250.67 93.7173 251.566 92.896C252.462 92.0747 253.414 91.5053 254.422 91.188C255.43 90.8707 256.111 90.712 256.466 90.712C256.802 90.712 257.362 90.768 258.146 90.88C259.154 91.0293 260.003 91.104 260.694 91.104H265.146V92.308ZM257.922 100.624C258.519 100.587 258.818 100.176 258.818 99.392C258.818 98.6827 258.584 97.656 258.118 96.312C257.072 93.1947 255.999 91.636 254.898 91.636C254.263 91.636 253.946 92.0467 253.946 92.868C253.946 93.5587 254.179 94.5947 254.646 95.976C255.728 99.0747 256.82 100.624 257.922 100.624ZM253.918 107.036C253.171 107.036 252.49 106.933 251.874 106.728C251.706 106.952 251.622 107.195 251.622 107.456C251.622 108.109 252.051 108.641 252.91 109.052C253.768 109.463 254.786 109.761 255.962 109.948C257.138 110.135 258.23 110.228 259.238 110.228C260.302 110.228 261.17 110.088 261.842 109.808C262.514 109.528 262.85 109.164 262.85 108.716C262.85 107.764 261.608 107.251 259.126 107.176L253.918 107.036ZM277.933 102.024C275.264 104.955 273.481 106.42 272.585 106.42C271.092 106.42 269.738 106.112 268.525 105.496C267.312 104.861 266.36 103.975 265.669 102.836C264.978 101.679 264.633 100.325 264.633 98.776C264.633 96.7787 265.118 95.1733 266.089 93.96C267.06 92.7467 268.142 91.8973 269.337 91.412C270.55 90.9267 271.54 90.684 272.305 90.684C273.985 90.684 275.282 91.1507 276.197 92.084C277.112 92.9987 277.625 94.2027 277.737 95.696C277.737 95.9387 277.42 96.2653 276.785 96.676C276.15 97.068 275.432 97.4227 274.629 97.74C273.826 98.0387 273.229 98.188 272.837 98.188H269.253C269.832 99.4947 270.625 100.568 271.633 101.408C272.641 102.248 273.817 102.668 275.161 102.668C275.572 102.668 275.973 102.612 276.365 102.5C276.776 102.369 277.252 102.164 277.793 101.884L277.933 102.024ZM269.925 91.972C269.496 91.972 269.132 92.1867 268.833 92.616C268.553 93.0453 268.413 93.6613 268.413 94.464C268.413 95.472 268.628 96.5453 269.057 97.684H272.725C272.706 96.62 272.566 95.6587 272.305 94.8C272.062 93.9227 271.726 93.232 271.297 92.728C270.886 92.224 270.429 91.972 269.925 91.972Z" fill="#212429"/>
<g opacity="0.1" filter="url(#filter0_d_190_768)">
<rect x="62" y="27" width="32" height="315" fill="#C1CEBD"/>
<rect x="62.5" y="27.5" width="31" height="314" stroke="black"/>
</g>
<g opacity="0.1" filter="url(#filter1_d_190_768)">
<rect x="378" y="51" width="32" height="336" transform="rotate(90 378 51)" fill="#C1CEBD"/>
<rect x="377.5" y="51.5" width="31" height="335" transform="rotate(90 377.5 51.5)" stroke="black"/>
</g>
<g opacity="0.1" filter="url(#filter2_d_190_768)">
<rect x="378" y="286" width="32" height="336" transform="rotate(90 378 286)" fill="#C1CEBD"/>
<rect x="377.5" y="286.5" width="31" height="335" transform="rotate(90 377.5 286.5)" stroke="black"/>
</g>
<rect opacity="0.1" x="326" y="27" width="32" height="315" fill="#C1CEBD"/>
<path d="M4.27148 71H3.18164V63.7754L0.996094 64.5781V63.5938L4.10156 62.4277H4.27148V71ZM10.623 65.6328C10.459 65.6055 10.2812 65.5918 10.0898 65.5918C9.37891 65.5918 8.89648 65.8945 8.64258 66.5V71H7.55859V64.6602H8.61328L8.63086 65.3926C8.98633 64.8262 9.49023 64.543 10.1426 64.543C10.3535 64.543 10.5137 64.5703 10.623 64.625V65.6328ZM14.1387 71.1172C13.2793 71.1172 12.5801 70.8359 12.041 70.2734C11.502 69.707 11.2324 68.9512 11.2324 68.0059V67.8066C11.2324 67.1777 11.3516 66.6172 11.5898 66.125C11.832 65.6289 12.168 65.2422 12.5977 64.9648C13.0312 64.6836 13.5 64.543 14.0039 64.543C14.8281 64.543 15.4688 64.8145 15.9258 65.3574C16.3828 65.9004 16.6113 66.6777 16.6113 67.6895V68.1406H12.3164C12.332 68.7656 12.5137 69.2715 12.8613 69.6582C13.2129 70.041 13.6582 70.2324 14.1973 70.2324C14.5801 70.2324 14.9043 70.1543 15.1699 69.998C15.4355 69.8418 15.668 69.6348 15.8672 69.377L16.5293 69.8926C15.998 70.709 15.2012 71.1172 14.1387 71.1172ZM14.0039 65.4336C13.5664 65.4336 13.1992 65.5938 12.9023 65.9141C12.6055 66.2305 12.4219 66.6758 12.3516 67.25H15.5273V67.168C15.4961 66.6172 15.3477 66.1914 15.082 65.8906C14.8164 65.5859 14.457 65.4336 14.0039 65.4336ZM18.8906 64.6602L18.9199 65.3633C19.3848 64.8164 20.0117 64.543 20.8008 64.543C21.6875 64.543 22.291 64.8828 22.6113 65.5625C22.8223 65.2578 23.0957 65.0117 23.4316 64.8242C23.7715 64.6367 24.1719 64.543 24.6328 64.543C26.0234 64.543 26.7305 65.2793 26.7539 66.752V71H25.6699V66.8164C25.6699 66.3633 25.5664 66.0254 25.3594 65.8027C25.1523 65.5762 24.8047 65.4629 24.3164 65.4629C23.9141 65.4629 23.5801 65.584 23.3145 65.8262C23.0488 66.0645 22.8945 66.3867 22.8516 66.793V71H21.7617V66.8457C21.7617 65.9238 21.3105 65.4629 20.4082 65.4629C19.6973 65.4629 19.2109 65.7656 18.9492 66.3711V71H17.8652V64.6602H18.8906Z" fill="black"/>
<path d="M68.2715 11H67.1816V3.77539L64.9961 4.57812V3.59375L68.1016 2.42773H68.2715V11ZM74.623 5.63281C74.459 5.60547 74.2812 5.5918 74.0898 5.5918C73.3789 5.5918 72.8965 5.89453 72.6426 6.5V11H71.5586V4.66016H72.6133L72.6309 5.39258C72.9863 4.82617 73.4902 4.54297 74.1426 4.54297C74.3535 4.54297 74.5137 4.57031 74.623 4.625V5.63281ZM78.1387 11.1172C77.2793 11.1172 76.5801 10.8359 76.041 10.2734C75.502 9.70703 75.2324 8.95117 75.2324 8.00586V7.80664C75.2324 7.17773 75.3516 6.61719 75.5898 6.125C75.832 5.62891 76.168 5.24219 76.5977 4.96484C77.0312 4.68359 77.5 4.54297 78.0039 4.54297C78.8281 4.54297 79.4688 4.81445 79.9258 5.35742C80.3828 5.90039 80.6113 6.67773 80.6113 7.68945V8.14062H76.3164C76.332 8.76562 76.5137 9.27148 76.8613 9.6582C77.2129 10.041 77.6582 10.2324 78.1973 10.2324C78.5801 10.2324 78.9043 10.1543 79.1699 9.99805C79.4355 9.8418 79.668 9.63477 79.8672 9.37695L80.5293 9.89258C79.998 10.709 79.2012 11.1172 78.1387 11.1172ZM78.0039 5.43359C77.5664 5.43359 77.1992 5.59375 76.9023 5.91406C76.6055 6.23047 76.4219 6.67578 76.3516 7.25H79.5273V7.16797C79.4961 6.61719 79.3477 6.19141 79.082 5.89062C78.8164 5.58594 78.457 5.43359 78.0039 5.43359ZM82.8906 4.66016L82.9199 5.36328C83.3848 4.81641 84.0117 4.54297 84.8008 4.54297C85.6875 4.54297 86.291 4.88281 86.6113 5.5625C86.8223 5.25781 87.0957 5.01172 87.4316 4.82422C87.7715 4.63672 88.1719 4.54297 88.6328 4.54297C90.0234 4.54297 90.7305 5.2793 90.7539 6.75195V11H89.6699V6.81641C89.6699 6.36328 89.5664 6.02539 89.3594 5.80273C89.1523 5.57617 88.8047 5.46289 88.3164 5.46289C87.9141 5.46289 87.5801 5.58398 87.3145 5.82617C87.0488 6.06445 86.8945 6.38672 86.8516 6.79297V11H85.7617V6.8457C85.7617 5.92383 85.3105 5.46289 84.4082 5.46289C83.6973 5.46289 83.2109 5.76562 82.9492 6.37109V11H81.8652V4.66016H82.8906Z" fill="black"/>
<path d="M38.3536 50.6464C38.1583 50.4512 37.8417 50.4512 37.6464 50.6464L34.4645 53.8284C34.2692 54.0237 34.2692 54.3403 34.4645 54.5355C34.6597 54.7308 34.9763 54.7308 35.1716 54.5355L38 51.7071L40.8284 54.5355C41.0237 54.7308 41.3403 54.7308 41.5355 54.5355C41.7308 54.3403 41.7308 54.0237 41.5355 53.8284L38.3536 50.6464ZM38.5 81L38.5 51L37.5 51L37.5 81L38.5 81Z" fill="black"/>
<path d="M37.6464 83.3536C37.8417 83.5488 38.1583 83.5488 38.3536 83.3536L41.5355 80.1716C41.7308 79.9763 41.7308 79.6597 41.5355 79.4645C41.3403 79.2692 41.0237 79.2692 40.8284 79.4645L38 82.2929L35.1716 79.4645C34.9763 79.2692 34.6597 79.2692 34.4645 79.4645C34.2692 79.6597 34.2692 79.9763 34.4645 80.1716L37.6464 83.3536ZM37.5 81L37.5 83L38.5 83L38.5 81L37.5 81Z" fill="black"/>
<path d="M94.3536 23.3536C94.5488 23.1583 94.5488 22.8417 94.3536 22.6464L91.1716 19.4645C90.9763 19.2692 90.6597 19.2692 90.4645 19.4645C90.2692 19.6597 90.2692 19.9763 90.4645 20.1716L93.2929 23L90.4645 25.8284C90.2692 26.0237 90.2692 26.3403 90.4645 26.5355C90.6597 26.7308 90.9763 26.7308 91.1716 26.5355L94.3536 23.3536ZM64 23.5L94 23.5V22.5L64 22.5L64 23.5Z" fill="black"/>
<path d="M61.6464 22.6464C61.4512 22.8417 61.4512 23.1583 61.6464 23.3536L64.8284 26.5355C65.0237 26.7308 65.3403 26.7308 65.5355 26.5355C65.7308 26.3403 65.7308 26.0237 65.5355 25.8284L62.7071 23L65.5355 20.1716C65.7308 19.9763 65.7308 19.6597 65.5355 19.4645C65.3403 19.2692 65.0237 19.2692 64.8284 19.4645L61.6464 22.6464ZM64 22.5L62 22.5L62 23.5L64 23.5L64 22.5Z" fill="black"/>
<line x1="95" y1="120.5" x2="326" y2="120.5" stroke="black"/>
<defs>
<filter id="filter0_d_190_768" x="58" y="27" width="40" height="323" filterUnits="userSpaceOnUse" color-interpolation-filters="sRGB">
<feFlood flood-opacity="0" result="BackgroundImageFix"/>
<feColorMatrix in="SourceAlpha" type="matrix" values="0 0 0 0 0 0 0 0 0 0 0 0 0 0 0 0 0 0 127 0" result="hardAlpha"/>
<feOffset dy="4"/>
<feGaussianBlur stdDeviation="2"/>
<feComposite in2="hardAlpha" operator="out"/>
<feColorMatrix type="matrix" values="0 0 0 0 0 0 0 0 0 0 0 0 0 0 0 0 0 0 0.25 0"/>
<feBlend mode="normal" in2="BackgroundImageFix" result="effect1_dropShadow_190_768"/>
<feBlend mode="normal" in="SourceGraphic" in2="effect1_dropShadow_190_768" result="shape"/>
</filter>
<filter id="filter1_d_190_768" x="38" y="51" width="344" height="40" filterUnits="userSpaceOnUse" color-interpolation-filters="sRGB">
<feFlood flood-opacity="0" result="BackgroundImageFix"/>
<feColorMatrix in="SourceAlpha" type="matrix" values="0 0 0 0 0 0 0 0 0 0 0 0 0 0 0 0 0 0 127 0" result="hardAlpha"/>
<feOffset dy="4"/>
<feGaussianBlur stdDeviation="2"/>
<feComposite in2="hardAlpha" operator="out"/>
<feColorMatrix type="matrix" values="0 0 0 0 0 0 0 0 0 0 0 0 0 0 0 0 0 0 0.25 0"/>
<feBlend mode="normal" in2="BackgroundImageFix" result="effect1_dropShadow_190_768"/>
<feBlend mode="normal" in="SourceGraphic" in2="effect1_dropShadow_190_768" result="shape"/>
</filter>
<filter id="filter2_d_190_768" x="38" y="286" width="344" height="40" filterUnits="userSpaceOnUse" color-interpolation-filters="sRGB">
<feFlood flood-opacity="0" result="BackgroundImageFix"/>
<feColorMatrix in="SourceAlpha" type="matrix" values="0 0 0 0 0 0 0 0 0 0 0 0 0 0 0 0 0 0 127 0" result="hardAlpha"/>
<feOffset dy="4"/>
<feGaussianBlur stdDeviation="2"/>
<feComposite in2="hardAlpha" operator="out"/>
<feColorMatrix type="matrix" values="0 0 0 0 0 0 0 0 0 0 0 0 0 0 0 0 0 0 0.25 0"/>
<feBlend mode="normal" in2="BackgroundImageFix" result="effect1_dropShadow_190_768"/>
<feBlend mode="normal" in="SourceGraphic" in2="effect1_dropShadow_190_768" result="shape"/>
</filter>
</defs>
</svg>
